<svg width="13" height="13" viewBox="0 0 13 13" fill="none" xmlns="http://www.w3.org/2000/svg">
<path fill-rule="evenodd" clip-rule="evenodd" d="M2.12855 0.300553L6.49992 4.67132L10.8713 0.300553C11.259 -0.0871634 11.8876 -0.0871634 12.2753 0.300553L12.4383 0.463522C12.826 0.851238 12.826 1.47985 12.4383 1.86757L8.06753 6.23893L12.4383 10.6103C12.826 10.998 12.826 11.6266 12.4383 12.0143L12.2753 12.1773C11.8876 12.565 11.259 12.565 10.8713 12.1773L6.49992 7.80654L2.12855 12.1773C1.74084 12.565 1.11222 12.565 0.724508 12.1773L0.561539 12.0143C0.173823 11.6266 0.173823 10.998 0.561539 10.6103L4.93231 6.23893L0.561539 1.86757C0.173823 1.47985 0.173823 0.851238 0.561539 0.463522L0.724508 0.300553C1.11222 -0.0871633 1.74084 -0.0871633 2.12855 0.300553Z" fill="white"/>
</svg>
