<svg width="26" height="40" viewBox="0 0 26 40" fill="none" xmlns="http://www.w3.org/2000/svg">
<path fill-rule="evenodd" clip-rule="evenodd" d="M11.4104 26.8335L9.82422 34.2665H16.2277L14.2633 26.8335H11.4104Z" fill="url(#paint0_linear_3819_47630)"/>
<path fill-rule="evenodd" clip-rule="evenodd" d="M20.5167 37.1332H5.41846V34.7687C5.41846 34.4914 5.65799 34.2666 5.95349 34.2666H19.9816C20.2771 34.2666 20.5167 34.4914 20.5167 34.7687V37.1332Z" fill="#C9C9C9"/>
<path fill-rule="evenodd" clip-rule="evenodd" d="M22.3624 39.9995H3.57422V37.6349C3.57422 37.3576 3.81384 37.1328 4.10933 37.1328H21.8274C22.1229 37.1328 22.3624 37.3576 22.3624 37.6349V39.9995Z" fill="#C9C9C9"/>
<path fill-rule="evenodd" clip-rule="evenodd" d="M9.97061 28.8977C5.49696 28.8977 1.72949 25.6266 1.72949 21.4287V3.83643H24.1237V21.4287C24.1237 25.6266 20.6381 28.8977 16.1645 28.8977H9.97061Z" fill="url(#paint1_linear_3819_47630)"/>
<path opacity="0.263701" fill-rule="evenodd" clip-rule="evenodd" d="M9.63091 28.8971C5.76355 28.8971 1.7207 25.4174 1.7207 21.1911V3.53151L6.92506 3.51465V21.2276C6.92506 25.4539 10.5792 28.8971 14.4458 28.8971H9.63091Z" fill="url(#paint2_linear_3819_47630)"/>
<path fill-rule="evenodd" clip-rule="evenodd" d="M25.0841 4.04878H0.915853C0.410109 4.04878 0 3.66403 0 3.18937V0.85941C0 0.384758 0.410109 0 0.915853 0H25.0841C25.59 0 26 0.384758 26 0.85941V3.18937C26 3.66403 25.59 4.04878 25.0841 4.04878Z" fill="#C9C9C9"/>
<path fill-rule="evenodd" clip-rule="evenodd" d="M13.6677 9.26431L14.9055 11.7589C15.0308 12.0119 15.2736 12.1859 15.5522 12.2254L18.3241 12.6207C18.7937 12.6899 19.1201 13.1248 19.0504 13.5913C19.0226 13.7771 18.935 13.9491 18.8017 14.0815L16.7959 16.0187C16.5949 16.2164 16.5014 16.499 16.5471 16.7777L17.0227 19.5174C17.1023 19.982 16.7859 20.4247 16.3163 20.5038C16.1312 20.5354 15.9402 20.5058 15.7731 20.4188L13.2956 19.1241C13.0469 18.9956 12.7484 18.9956 12.4997 19.1241L10.0222 20.4188C9.60039 20.6382 9.07903 20.4761 8.85815 20.0571C8.7706 19.891 8.73876 19.7013 8.77259 19.5174L9.24419 16.7777C9.29394 16.499 9.20042 16.2164 8.99546 16.0187L6.99361 14.0815C6.65334 13.7514 6.64737 13.2078 6.97969 12.8698C7.11102 12.7354 7.28414 12.6484 7.47119 12.6207L10.2391 12.2254C10.5217 12.1859 10.7645 12.0119 10.8898 11.7589L12.1276 9.26431C12.3405 8.84327 12.8579 8.6713 13.2837 8.88478C13.4508 8.9678 13.5842 9.10024 13.6677 9.26431Z" fill="#8C8C8C"/>
<defs>
<linearGradient id="paint0_linear_3819_47630" x1="9.82422" y1="26.8335" x2="9.82422" y2="34.2665" gradientUnits="userSpaceOnUse">
<stop stop-color="#E0E0E0"/>
<stop offset="1" stop-color="#C9C9C9"/>
</linearGradient>
<linearGradient id="paint1_linear_3819_47630" x1="1.72949" y1="3.83643" x2="1.72949" y2="28.8977" gradientUnits="userSpaceOnUse">
<stop stop-color="white"/>
<stop offset="1" stop-color="#9F9F9F"/>
</linearGradient>
<linearGradient id="paint2_linear_3819_47630" x1="-22.3378" y1="29.1726" x2="4.29978" y2="35.4603" gradientUnits="userSpaceOnUse">
<stop stop-color="#505050"/>
<stop offset="0.109844" stop-color="#555555"/>
<stop offset="1" stop-color="#B9B9B9"/>
</linearGradient>
</defs>
</svg>
