<svg width="40" height="40" viewBox="0 0 40 40" fill="none" xmlns="http://www.w3.org/2000/svg">
<path d="M20 40C31.0457 40 40 31.0457 40 20C40 8.9543 31.0457 0 20 0C8.9543 0 0 8.9543 0 20C0 31.0457 8.9543 40 20 40Z" fill="black" fill-opacity="0.5"/>
<path fill-rule="evenodd" clip-rule="evenodd" d="M25.4882 11.013C25.4882 10.7443 25.3818 10.4866 25.1924 10.2966C25.0029 10.1067 24.746 10 24.4781 10C24.2102 10 23.9532 10.1067 23.7638 10.2966L14.8317 19.2541C14.8235 19.2617 14.8155 19.2694 14.8076 19.2774C14.8 19.285 14.7925 19.2927 14.7852 19.3006C14.6995 19.3891 14.6307 19.4927 14.582 19.6062C14.5291 19.7298 14.5012 19.8628 14.5 19.9973C14.4989 20.1318 14.5244 20.2652 14.5752 20.3898C14.626 20.5143 14.7011 20.6274 14.7959 20.7225C14.84 20.7667 14.8879 20.8066 14.9391 20.8418L23.763 29.6907C23.8562 29.7874 23.9677 29.8646 24.0909 29.9177C24.2142 29.9708 24.3468 29.9988 24.4809 30C24.6151 30.0011 24.7481 29.9755 24.8723 29.9245C24.9964 29.8736 25.1092 29.7984 25.2041 29.7032C25.2989 29.6081 25.374 29.495 25.4248 29.3705C25.4756 29.246 25.5011 29.1125 25.5 28.978C25.4988 28.8435 25.4709 28.7105 25.418 28.5869C25.365 28.4633 25.2881 28.3515 25.1916 28.2581L16.9509 19.9941L25.1924 11.7293C25.3818 11.5393 25.4882 11.2816 25.4882 11.013Z" fill="white"/>
</svg>
