<svg width="24" height="26" viewBox="0 0 24 26" fill="none" xmlns="http://www.w3.org/2000/svg">
<path fill-rule="evenodd" clip-rule="evenodd" d="M7 5.5C7 2.73856 9.23856 0.5 12 0.5C14.7614 0.5 17 2.73856 17 5.5V6.75H22C22.6903 6.75 23.25 7.30966 23.25 8C23.25 8.69034 22.6903 9.25 22 9.25H18.4268C19.0911 10.7228 18.9416 12.561 17.625 13.9375V17.375C17.625 19.1871 16.7682 20.799 15.4375 21.8278V16.4375C15.4375 14.539 13.8985 13 12 13C10.1015 13 8.5625 14.539 8.5625 16.4375V21.8278C7.23184 20.799 6.375 19.1871 6.375 17.375V13.9375C5.05837 12.561 4.90891 10.7228 5.57322 9.25H2C1.30966 9.25 0.75 8.69034 0.75 8C0.75 7.30966 1.30966 6.75 2 6.75H7V5.5ZM14.5 8C14.5 9.38072 13.3807 10.5 12 10.5C10.6193 10.5 9.5 9.38072 9.5 8C9.5 6.61928 10.6193 5.5 12 5.5C13.3807 5.5 14.5 6.61928 14.5 8ZM12 15.5C11.1371 15.5 10.4375 16.1996 10.4375 17.0625V23.9375C10.4375 24.8004 11.1371 25.5 12 25.5C12.8629 25.5 13.5625 24.8004 13.5625 23.9375V17.0625C13.5625 16.1996 12.8629 15.5 12 15.5Z" fill="#171717"/>
</svg>
