<?xml version="1.0" encoding="UTF-8"?>
<svg width="118px" height="118px" viewBox="0 0 118 118" version="1.1" xmlns="http://www.w3.org/2000/svg" xmlns:xlink="http://www.w3.org/1999/xlink">
    <title>Group 4 Copy</title>
    <g id="✓-Dashcam" stroke="none" stroke-width="1" fill="none" fill-rule="evenodd">
        <g id="Group-4-Copy">
            <path d="M58.973931,108 L16.4293616,108 C6.88811628,108 0.892251721,97.6828462 5.68894337,89.4913371 L26.9612281,52.8369263 L48.2335128,16.1825155 C53.0302044,7.93916149 64.9697956,7.93916149 69.7664872,16.1825155 L91.0387719,52.8369263 L112.311057,89.4913371 C117.107748,97.7346912 111.111884,108 101.570638,108 L58.973931,108 Z" id="Path" fill="#000000" fill-rule="nonzero" opacity="0.699999988"></path>
            <ellipse id="Oval" fill="#FF0000" fill-rule="nonzero" cx="59" cy="94.6226415" rx="5" ry="6.67924528"></ellipse>
            <rect id="Rectangle" fill="#FF0000" x="54" y="31.1698113" width="10" height="47.8679245" rx="3.92857143"></rect>
            <path d="M44.8228584,14.146514 L2.22997068,87.5700601 C-4.09921332,98.3832458 3.80329186,112 16.3853866,112 L101.618823,112 C114.207104,112 122.093723,98.4350604 115.771972,87.5661577 L73.1813511,14.146514 C66.8636046,3.28449534 51.1406049,3.28449534 44.8228584,14.146514 Z M66.3791409,18.0890614 L108.967495,91.5048026 C112.239221,97.1298438 108.158798,104.148148 101.618823,104.148148 L16.3853866,104.148148 C9.85860884,104.148148 5.76500642,97.094489 9.02901643,91.5180136 L51.6273355,18.0851589 C54.9110896,12.4394487 63.0931199,12.4394487 66.3791409,18.0890614 Z" id="Path" fill="#FF0000" fill-rule="nonzero"></path>
        </g>
    </g>
</svg>